<mxfile host="app.diagrams.net" modified="2024-08-27T08:31:42.354Z" agent="Mozilla/5.0 (Windows NT 10.0; Win64; x64) AppleWebKit/537.36 (KHTML, like Gecko) Chrome/127.0.0.0 Safari/537.36" version="24.5.5" etag="UYP-wP_gDdU-9EbM11SU" type="github">
  <diagram name="第 1 页" id="KuCFC6AAgxdEb4YInTib">
    <mxGraphModel>
      <root>
        <mxCell id="0" />
        <mxCell id="1" parent="0" />
      </root>
    </mxGraphModel>
  </diagram>
</mxfile>
